<svg width="250" height="250" viewBox="0 0 250 250" fill="none" xmlns="http://www.w3.org/2000/svg">
<circle cx="125" cy="125" r="125" fill="#35BDC4"/>
<path d="M63 124.547C63 114.949 64.4473 106.342 67.3418 98.7246C70.2363 91.1074 74.3496 84.6582 79.6816 79.377C85.0136 74.0449 91.4883 69.9824 99.1054 67.1895C106.723 64.3965 115.254 63 124.699 63C134.145 63 142.676 64.3965 150.293 67.1895C157.91 69.9824 164.385 74.0449 169.717 79.377C175.049 84.6582 179.162 91.1074 182.057 98.7246C184.951 106.342 186.399 114.949 186.399 124.547C186.399 134.144 184.951 142.752 182.057 150.369C179.162 157.986 175.049 164.436 169.717 169.717C164.385 174.998 157.91 179.035 150.293 181.828C142.676 184.621 134.145 186.018 124.699 186.018C115.254 186.018 106.723 184.621 99.1054 181.828C91.4883 179.035 85.0136 174.998 79.6816 169.717C74.3496 164.436 70.2363 157.986 67.3418 150.369C64.4473 142.752 63 134.144 63 124.547ZM87.1465 124.471C87.1465 130.971 88.0097 136.709 89.7363 141.686C91.5136 146.662 94.0273 150.852 97.2773 154.254C100.527 157.605 104.463 160.17 109.084 161.947C113.705 163.674 118.91 164.537 124.699 164.537C130.488 164.537 135.693 163.674 140.314 161.947C144.936 160.17 148.871 157.605 152.121 154.254C155.371 150.852 157.859 146.662 159.586 141.686C161.363 136.709 162.252 130.971 162.252 124.471C162.252 118.021 161.363 112.334 159.586 107.408C157.859 102.432 155.371 98.2422 152.121 94.8398C148.871 91.4375 144.936 88.8731 140.314 87.1465C135.693 85.3691 130.488 84.4805 124.699 84.4805C118.91 84.4805 113.705 85.3691 109.084 87.1465C104.463 88.8731 100.527 91.4375 97.2773 94.8398C94.0273 98.2422 91.5136 102.432 89.7363 107.408C88.0097 112.334 87.1465 118.021 87.1465 124.471Z" fill="white"/>
</svg>
