<svg width="250" height="250" viewBox="0 0 250 250" fill="none" xmlns="http://www.w3.org/2000/svg">
<circle cx="125" cy="125" r="125" fill="#43C435"/>
<path d="M82.1211 155.721C88.1133 158.666 94.5117 160.824 101.316 162.195C108.172 163.516 114.85 164.176 121.35 164.176C127.139 164.176 132.141 163.719 136.355 162.805C140.57 161.84 144.049 160.545 146.791 158.92C149.533 157.295 151.564 155.365 152.885 153.131C154.205 150.896 154.865 148.484 154.865 145.895C154.865 142.391 153.672 139.268 151.285 136.525C148.898 133.732 145.268 131.65 140.393 130.279C135.568 128.857 129.449 128.299 122.035 128.604C114.672 128.908 105.988 130.355 95.9844 132.945L96.0606 115.121L140.545 86.1757H77.5508V65H172.841V85.7187L133.689 110.551C140.85 110.551 147.248 111.465 152.885 113.293C158.521 115.121 163.269 117.635 167.129 120.834C170.988 124.033 173.933 127.816 175.964 132.184C177.996 136.551 179.011 141.248 179.011 146.275C179.011 152.217 177.691 157.625 175.05 162.5C172.46 167.325 168.678 171.463 163.701 174.916C158.725 178.319 152.631 180.959 145.42 182.838C138.26 184.717 130.135 185.657 121.045 185.657C111.396 185.657 102.484 184.641 94.3086 182.61C86.1328 180.528 78.3633 177.659 71 174.002L82.1211 155.721Z" fill="white"/>
</svg>
