<svg width="250" height="250" viewBox="0 0 250 250" fill="none" xmlns="http://www.w3.org/2000/svg">
<circle cx="125" cy="125" r="125" fill="#F78929"/>
<path d="M68 128.289C68 117.473 69.5996 108.053 72.7988 100.029C76.0488 91.9551 80.4668 85.2519 86.0528 79.9199C91.6895 74.5879 98.3165 70.6016 105.934 67.9609C113.551 65.3203 121.777 64 130.613 64C134.32 64 138.078 64.2031 141.887 64.6094C145.746 64.9648 149.529 65.5488 153.236 66.3613C156.943 67.1738 160.523 68.2402 163.977 69.5605C167.481 70.8301 170.731 72.3535 173.727 74.1309L162.986 92.4121C160.752 91.1426 158.365 90.0762 155.826 89.2129C153.338 88.2988 150.748 87.5879 148.057 87.0801C145.365 86.5215 142.648 86.1152 139.906 85.8613C137.164 85.6074 134.473 85.4805 131.832 85.4805C125.941 85.4805 120.609 86.2422 115.836 87.7656C111.113 89.2891 107.025 91.4473 103.572 94.2402C100.119 97.0332 97.3516 100.385 95.2696 104.295C93.2383 108.154 91.9688 112.445 91.461 117.168C94.1016 115.086 97.0215 113.283 100.221 111.76C103.42 110.236 106.797 108.992 110.352 108.027C113.957 107.012 117.639 106.275 121.396 105.818C125.205 105.311 129.014 105.057 132.822 105.057C140.236 105.057 146.965 105.945 153.008 107.723C159.102 109.5 164.307 112.064 168.623 115.416C172.94 118.768 176.266 122.856 178.602 127.68C180.989 132.453 182.182 137.887 182.182 143.981C182.182 149.973 180.989 155.533 178.602 160.662C176.266 165.791 172.787 170.26 168.166 174.068C163.545 177.826 157.807 180.797 150.951 182.981C144.096 185.113 136.148 186.18 127.109 186.18C118.324 186.18 110.301 185.063 103.039 182.828C95.7774 180.594 89.5567 177.115 84.377 172.393C79.1973 167.67 75.1602 161.678 72.2656 154.416C69.4219 147.104 68 138.395 68 128.289ZM91.9942 139.486C93.2129 147.814 96.8692 154.111 102.963 158.377C109.057 162.592 117.055 164.699 126.957 164.699C131.934 164.699 136.352 164.192 140.211 163.176C144.07 162.16 147.32 160.764 149.961 158.986C152.602 157.158 154.607 155 155.979 152.512C157.35 150.023 158.035 147.307 158.035 144.361C158.035 141.873 157.502 139.537 156.436 137.354C155.369 135.17 153.693 133.291 151.408 131.717C149.174 130.092 146.279 128.822 142.725 127.908C139.17 126.943 134.879 126.461 129.852 126.461C125.637 126.461 121.65 126.791 117.893 127.451C114.135 128.111 110.656 129.025 107.457 130.193C104.258 131.361 101.338 132.732 98.6973 134.307C96.1075 135.881 93.8731 137.607 91.9942 139.486Z" fill="white"/>
</svg>
