<svg width="250" height="250" viewBox="0 0 250 250" fill="none" xmlns="http://www.w3.org/2000/svg">
<circle cx="125" cy="125" r="125" fill="#DC3636"/>
<path d="M66 148.322C66 144.768 66.4824 141.467 67.4473 138.42C68.4121 135.373 69.7324 132.605 71.4082 130.117C73.084 127.578 75.0137 125.344 77.1972 123.414C79.4316 121.434 81.8183 119.707 84.3574 118.234C80.8535 114.781 78.3144 111.353 76.7402 107.951C75.166 104.498 74.3789 101.197 74.3789 98.0489C74.3789 93.0215 75.5469 88.4258 77.8828 84.2617C80.2695 80.0977 83.6719 76.5176 88.0898 73.5215C92.5078 70.4746 97.8652 68.1387 104.162 66.5137C110.459 64.8379 117.543 64 125.414 64C133.285 64 140.369 64.8379 146.666 66.5137C152.963 68.1387 158.32 70.4746 162.738 73.5215C167.156 76.5176 170.533 80.0977 172.869 84.2617C175.256 88.4258 176.449 93.0215 176.449 98.0489C176.449 101.197 175.662 104.498 174.088 107.951C172.514 111.353 169.975 114.781 166.471 118.234C168.959 119.707 171.32 121.434 173.555 123.414C175.789 125.344 177.744 127.578 179.42 130.117C181.096 132.605 182.416 135.373 183.381 138.42C184.346 141.467 184.828 144.768 184.828 148.322C184.828 154.264 183.432 159.596 180.639 164.318C177.896 168.99 173.936 172.951 168.756 176.201C163.627 179.4 157.381 181.863 150.018 183.59C142.705 185.316 134.504 186.18 125.414 186.18C116.324 186.18 108.098 185.316 100.734 183.59C93.4219 181.863 87.1758 179.4 81.9961 176.201C76.8672 172.951 72.9062 168.99 70.1133 164.318C67.3711 159.596 66 154.264 66 148.322ZM98.5254 99.1153C98.5254 100.994 98.9824 102.771 99.8965 104.447C100.861 106.072 102.385 107.52 104.467 108.789C106.6 110.008 109.367 110.973 112.77 111.684C116.223 112.395 120.438 112.75 125.414 112.75C130.391 112.75 134.58 112.395 137.982 111.684C141.436 110.973 144.203 110.008 146.285 108.789C148.418 107.52 149.941 106.072 150.856 104.447C151.82 102.771 152.303 100.994 152.303 99.1153C152.303 97.2363 151.82 95.4844 150.856 93.8594C149.941 92.1836 148.418 90.7363 146.285 89.5176C144.203 88.2481 141.436 87.2578 137.982 86.5469C134.58 85.836 130.391 85.4805 125.414 85.4805C120.438 85.4805 116.223 85.836 112.77 86.5469C109.367 87.2578 106.6 88.2481 104.467 89.5176C102.385 90.7363 100.861 92.1836 99.8965 93.8594C98.9824 95.4844 98.5254 97.2363 98.5254 99.1153ZM90.1465 147.18C90.1465 149.77 90.8828 152.156 92.3555 154.34C93.8789 156.473 96.1133 158.301 99.0586 159.824C102.004 161.348 105.686 162.541 110.104 163.404C114.522 164.268 119.625 164.699 125.414 164.699C131.203 164.699 136.307 164.268 140.725 163.404C145.143 162.541 148.824 161.348 151.77 159.824C154.715 158.301 156.924 156.473 158.397 154.34C159.92 152.156 160.682 149.77 160.682 147.18C160.682 144.59 159.945 142.228 158.473 140.096C157.051 137.912 154.867 136.059 151.922 134.535C149.027 133.012 145.371 131.818 140.953 130.955C136.535 130.092 131.356 129.66 125.414 129.66C119.473 129.66 114.293 130.092 109.875 130.955C105.457 131.818 101.775 133.012 98.8301 134.535C95.9355 136.059 93.7519 137.912 92.2793 140.096C90.8574 142.228 90.1465 144.59 90.1465 147.18Z" fill="white"/>
</svg>
