<svg width="250" height="250" viewBox="0 0 250 250" fill="none" xmlns="http://www.w3.org/2000/svg">
<circle cx="125" cy="125" r="125" fill="#321C0F"/>
<path d="M125.5 212C109.628 212 94.9089 207.998 81.343 199.994C68.1841 192.262 57.7384 181.816 50.0058 168.657C42.0019 155.091 38 140.372 38 124.5C38 108.628 42.0019 93.9089 50.0058 80.343C57.7384 67.1841 68.1841 56.7384 81.343 49.0058C94.9089 41.0019 109.628 37 125.5 37C141.372 37 156.091 41.0019 169.657 49.0058C182.816 56.7384 193.262 67.1841 200.994 80.343C208.998 93.9089 213 108.628 213 124.5C213 140.372 208.998 155.091 200.994 168.657C193.262 181.816 182.816 192.262 169.657 199.994C156.091 207.998 141.372 212 125.5 212ZM88.8721 177.407C94.1628 181.205 99.9622 184.088 106.27 186.055C112.578 188.022 118.988 189.006 125.5 189.006C137.167 189.006 148.019 186.021 158.058 180.052C167.69 174.355 175.355 166.69 181.052 157.058C187.021 147.019 190.006 136.167 190.006 124.5C190.006 117.988 189.022 111.578 187.055 105.27C185.088 98.9622 182.205 93.1628 178.407 87.8721L88.8721 177.407ZM125.5 59.9942C113.833 59.9942 102.981 62.9787 92.9419 68.9477C83.3101 74.6453 75.6453 82.3101 69.9477 91.9419C63.9787 101.981 60.9942 112.833 60.9942 124.5C60.9942 131.012 61.9777 137.422 63.9448 143.73C65.9118 150.038 68.7946 155.837 72.593 161.128L162.128 71.593C156.837 67.7946 151.038 64.9118 144.73 62.9448C138.422 60.9777 132.012 59.9942 125.5 59.9942Z" fill="white"/>
</svg>
