<svg width="250" height="250" viewBox="0 0 250 250" fill="none" xmlns="http://www.w3.org/2000/svg">
<circle cx="125" cy="125" r="125" fill="#DC3636"/>
<path d="M85.6718 157.006C87.8554 158.275 90.2929 159.393 92.9843 160.357C95.6757 161.322 98.4433 162.135 101.287 162.795C104.182 163.404 107.076 163.887 109.971 164.242C112.916 164.547 115.709 164.699 118.35 164.699C124.24 164.699 129.547 163.938 134.27 162.414C139.043 160.891 143.156 158.732 146.609 155.939C150.063 153.147 152.805 149.82 154.836 145.961C156.918 142.051 158.213 137.734 158.721 133.012C156.08 135.094 153.16 136.897 149.961 138.42C146.762 139.943 143.359 141.213 139.754 142.229C136.199 143.193 132.518 143.93 128.709 144.438C124.951 144.895 121.168 145.123 117.359 145.123C109.945 145.123 103.191 144.234 97.0976 142.457C91.0546 140.68 85.875 138.115 81.5585 134.764C77.2421 131.412 73.8906 127.35 71.5039 122.576C69.168 117.752 68 112.293 68 106.199C68 100.207 69.168 94.6465 71.5039 89.5176C73.8906 84.3887 77.3945 79.9453 82.0156 76.1875C86.6367 72.3789 92.375 69.4082 99.2304 67.2754C106.086 65.0918 114.033 64 123.072 64C131.857 64 139.881 65.1172 147.143 67.3516C154.404 69.5859 160.625 73.0645 165.805 77.7871C170.985 82.5098 174.997 88.5273 177.84 95.8398C180.735 103.102 182.182 111.785 182.182 121.891C182.182 132.707 180.557 142.152 177.307 150.227C174.108 158.25 169.69 164.928 164.053 170.26C158.467 175.592 151.865 179.578 144.248 182.219C136.631 184.859 128.404 186.18 119.568 186.18C115.861 186.18 112.002 185.951 107.99 185.494C104.029 185.037 100.094 184.352 96.1835 183.438C92.2734 182.524 88.4902 181.381 84.8339 180.01C81.2285 178.639 77.9277 177.065 74.9316 175.287L85.6718 157.006ZM92.1464 105.818C92.1464 108.307 92.6796 110.643 93.746 112.826C94.8125 115.01 96.4628 116.914 98.6972 118.539C100.982 120.113 103.902 121.383 107.457 122.348C111.012 123.262 115.303 123.719 120.33 123.719C124.545 123.719 128.531 123.389 132.289 122.729C136.047 122.068 139.525 121.154 142.725 119.986C145.924 118.818 148.818 117.447 151.408 115.873C154.049 114.299 156.309 112.572 158.188 110.693C156.969 102.365 153.313 96.0937 147.219 91.8789C141.125 87.6133 133.127 85.4805 123.225 85.4805C118.248 85.4805 113.83 85.9883 109.971 87.0039C106.111 88.0195 102.861 89.4414 100.221 91.2695C97.58 93.0469 95.5742 95.1797 94.2031 97.668C92.832 100.156 92.1464 102.873 92.1464 105.818Z" fill="white"/>
</svg>
