<svg width="250" height="250" viewBox="0 0 250 250" fill="none" xmlns="http://www.w3.org/2000/svg">
<circle cx="125" cy="125" r="125" fill="#DC3636"/>
<path d="M30.6642 160.195H55.2074V92.7177C51.9811 93.4574 48.87 94.4283 45.8741 95.6304C42.9243 96.8324 40.228 98.2888 37.7852 99.9993L27 84.5344C30.9638 82.0378 34.9967 79.9342 39.0988 78.2235C43.2469 76.4667 47.4181 75.0797 51.6124 74.0625C55.8528 72.9992 60.0931 72.2363 64.3334 71.774C68.6198 71.3117 72.8831 71.0805 77.1234 71.0805L77.0544 71.2192H77.1234V160.195H100.56V179.474H30.6642V160.195ZM111 125.035C111 116.297 112.314 108.46 114.941 101.525C117.568 94.5901 121.301 88.7185 126.141 83.9102C130.98 79.0557 136.857 75.3571 143.771 72.8142C150.684 70.2714 158.427 69 167 69C175.573 69 183.316 70.2714 190.23 72.8142C197.143 75.3571 203.02 79.0557 207.859 83.9102C212.699 88.7185 216.432 94.5901 219.059 101.525C221.686 108.46 223 116.297 223 125.035C223 133.773 221.686 141.609 219.059 148.544C216.432 155.479 212.699 161.351 207.859 166.159C203.02 170.967 197.143 174.643 190.23 177.186C183.316 179.729 175.573 181 167 181C158.427 181 150.684 179.729 143.771 177.186C136.857 174.643 130.98 170.967 126.141 166.159C121.301 161.351 117.568 155.479 114.941 148.544C112.314 141.609 111 133.773 111 125.035ZM132.916 124.965C132.916 130.883 133.7 136.108 135.267 140.638C136.88 145.169 139.161 148.984 142.111 152.081C145.061 155.132 148.633 157.467 152.827 159.086C157.021 160.657 161.746 161.443 167 161.443C172.254 161.443 176.979 160.657 181.173 159.086C185.367 157.467 188.939 155.132 191.889 152.081C194.839 148.984 197.097 145.169 198.664 140.638C200.277 136.108 201.084 130.883 201.084 124.965C201.084 119.094 200.277 113.916 198.664 109.431C197.097 104.9 194.839 101.086 191.889 97.9881C188.939 94.8906 185.367 92.5558 181.173 90.9839C176.979 89.3658 172.254 88.5567 167 88.5567C161.746 88.5567 157.021 89.3658 152.827 90.9839C148.633 92.5558 145.061 94.8906 142.111 97.9881C139.161 101.086 136.88 104.9 135.267 109.431C133.7 113.916 132.916 119.094 132.916 124.965Z" fill="white"/>
</svg>
