<svg width="250" height="250" viewBox="0 0 250 250" fill="none" xmlns="http://www.w3.org/2000/svg">
<circle cx="125" cy="125" r="125" fill="#F6E936"/>
<path d="M81.121 155.721C84.0156 157.193 87.1386 158.463 90.4902 159.529C93.8925 160.545 97.371 161.408 100.926 162.119C104.531 162.83 108.137 163.363 111.742 163.719C115.398 164.023 118.953 164.176 122.406 164.176C128.5 164.176 133.756 163.744 138.174 162.881C142.643 161.967 146.299 160.697 149.143 159.072C152.037 157.447 154.17 155.518 155.541 153.283C156.963 150.998 157.674 148.484 157.674 145.742C157.674 142.949 156.938 140.385 155.465 138.049C154.043 135.713 151.885 133.707 148.99 132.031C146.146 130.355 142.541 129.061 138.174 128.146C133.857 127.182 128.805 126.699 123.016 126.699C120.426 126.699 117.506 126.826 114.256 127.08C111.006 127.283 107.553 127.639 103.896 128.146C100.24 128.654 96.4316 129.365 92.4707 130.279C88.5097 131.143 84.498 132.209 80.4355 133.479V65H171.766V86.4043H102.754V109.484C106.563 108.621 110.549 107.91 114.713 107.352C118.877 106.742 123.523 106.438 128.652 106.438C137.031 106.438 144.521 107.352 151.123 109.18C157.725 111.008 163.285 113.623 167.805 117.025C172.375 120.428 175.854 124.541 178.241 129.365C180.627 134.139 181.821 139.496 181.821 145.438C181.821 151.582 180.526 157.143 177.936 162.119C175.397 167.045 171.614 171.26 166.586 174.764C161.609 178.268 155.465 180.959 148.152 182.838C140.891 184.717 132.537 185.657 123.092 185.657C118.217 185.657 113.367 185.377 108.543 184.819C103.77 184.311 99.123 183.575 94.6035 182.61C90.0839 181.594 85.7421 180.375 81.5781 178.953C77.4648 177.481 73.6055 175.83 70 174.002L81.121 155.721Z" fill="black"/>
</svg>
