<svg width="250" height="250" viewBox="0 0 250 250" fill="none" xmlns="http://www.w3.org/2000/svg">
<circle cx="125" cy="125" r="125" fill="#43C435"/>
<path d="M74.8184 164.785L116.789 135.992C123.086 131.676 128.24 127.918 132.252 124.719C136.264 121.52 139.412 118.676 141.697 116.188C143.982 113.648 145.557 111.363 146.42 109.332C147.283 107.301 147.715 105.27 147.715 103.238C147.715 100.902 147.232 98.7187 146.268 96.6875C145.303 94.6562 143.779 92.8789 141.697 91.3555C139.666 89.832 137.025 88.6387 133.775 87.7754C130.576 86.9121 126.742 86.4805 122.273 86.4805C115.773 86.4805 109.299 87.3945 102.85 89.2227C96.4003 91.0508 89.8242 93.9707 83.121 97.9824L72 79.7012C79.4648 75.0801 87.539 71.4746 96.2226 68.8848C104.957 66.2949 114.123 65 123.721 65C132.1 65 139.361 66.0156 145.506 68.0469C151.701 70.0273 156.805 72.7441 160.816 76.1973C164.879 79.6504 167.9 83.6621 169.881 88.2324C171.862 92.8027 172.852 97.6523 172.852 102.781C172.852 106.742 172.192 110.525 170.871 114.131C169.551 117.736 167.24 121.469 163.939 125.328C160.639 129.188 156.17 133.352 150.533 137.82C144.947 142.238 137.889 147.266 129.357 152.902L111.99 164.328H177.194V185.504H74.8184V164.785Z" fill="white"/>
</svg>
